<svg width="90" height="90" viewBox="0 0 90 90" fill="none" xmlns="http://www.w3.org/2000/svg">
<path d="M53.7127 10.3843C55.7279 8.37281 58.3842 7.25346 61.1437 7.25293H79.6832C82.208 7.25293 84.6295 8.32309 86.4148 10.228C88.2001 12.1329 89.2031 14.7165 89.2031 17.4104V37.0202C89.2032 38.545 88.9217 40.0549 88.3747 41.4637C87.8277 42.8724 87.026 44.1523 86.0153 45.2304L53.8569 79.5424C51.689 81.8551 48.7489 83.1544 45.6833 83.1544C42.6177 83.1544 39.6776 81.8551 37.5097 79.5424L20.3031 61.1835C19.2065 60.0138 18.3417 58.6207 17.7601 57.0872C17.1785 55.5536 16.892 53.9109 16.9176 52.2567C16.9432 50.6026 17.2805 48.9708 17.9093 47.4586C18.5381 45.9464 19.4456 44.5846 20.5778 43.4543L53.7127 10.3872V10.3843ZM71.5232 33.3722C73.3267 33.3722 75.0563 32.6078 76.3315 31.2472C77.6067 29.8865 78.3232 28.0411 78.3232 26.1169C78.3232 24.1926 77.6067 22.3472 76.3315 20.9865C75.0563 19.6259 73.3267 18.8615 71.5232 18.8615C69.7197 18.8615 67.9901 19.6259 66.7149 20.9865C65.4396 22.3472 64.7232 24.1926 64.7232 26.1169C64.7232 28.0411 65.4396 29.8865 66.7149 31.2472C67.9901 32.6078 69.7197 33.3722 71.5232 33.3722Z" fill="url(#paint0_linear_592_9075)"/>
<defs>
<linearGradient id="paint0_linear_592_9075" x1="26.5967" y1="29.5376" x2="48.3069" y2="72.4252" gradientUnits="userSpaceOnUse">
<stop offset="0.111408" stop-color="#5D169A"/>
<stop offset="0.841475" stop-color="#FDAAF8"/>
</linearGradient>
</defs>
</svg>
