<svg width="90" height="89" viewBox="0 0 90 89" fill="none" xmlns="http://www.w3.org/2000/svg">
<path d="M45.2796 71.5949C43.2231 71.5949 41.2509 72.4101 39.7967 73.8612C38.3426 75.3123 37.5256 77.2803 37.5256 79.3325C37.5256 81.3846 38.3426 83.3527 39.7967 84.8038C41.2509 86.2549 43.2231 87.0701 45.2796 87.0701C47.3361 87.0701 49.3084 86.2549 50.7625 84.8038C52.2167 83.3527 53.0336 81.3846 53.0336 79.3325C53.0336 77.2803 52.2167 75.3123 50.7625 73.8612C49.3084 72.4101 47.3361 71.5949 45.2796 71.5949ZM22.0177 1.95654C19.9612 1.95654 17.9889 2.77175 16.5348 4.22283C15.0806 5.67391 14.2637 7.642 14.2637 9.69414C14.2637 11.7463 15.0806 13.7144 16.5348 15.1654C17.9889 16.6165 19.9612 17.4317 22.0177 17.4317C24.0741 17.4317 26.0464 16.6165 27.5006 15.1654C28.9547 13.7144 29.7716 11.7463 29.7716 9.69414C29.7716 7.642 28.9547 5.67391 27.5006 4.22283C26.0464 2.77175 24.0741 1.95654 22.0177 1.95654ZM22.0177 25.1693C19.9612 25.1693 17.9889 25.9845 16.5348 27.4356C15.0806 28.8867 14.2637 30.8548 14.2637 32.9069C14.2637 34.9591 15.0806 36.9271 16.5348 38.3782C17.9889 39.8293 19.9612 40.6445 22.0177 40.6445C24.0741 40.6445 26.0464 39.8293 27.5006 38.3782C28.9547 36.9271 29.7716 34.9591 29.7716 32.9069C29.7716 30.8548 28.9547 28.8867 27.5006 27.4356C26.0464 25.9845 24.0741 25.1693 22.0177 25.1693ZM22.0177 48.3821C19.9612 48.3821 17.9889 49.1973 16.5348 50.6484C15.0806 52.0995 14.2637 54.0676 14.2637 56.1197C14.2637 58.1718 15.0806 60.1399 16.5348 61.591C17.9889 63.0421 19.9612 63.8573 22.0177 63.8573C24.0741 63.8573 26.0464 63.0421 27.5006 61.591C28.9547 60.1399 29.7716 58.1718 29.7716 56.1197C29.7716 54.0676 28.9547 52.0995 27.5006 50.6484C26.0464 49.1973 24.0741 48.3821 22.0177 48.3821ZM68.5416 17.4317C70.5981 17.4317 72.5703 16.6165 74.0245 15.1654C75.4786 13.7144 76.2956 11.7463 76.2956 9.69414C76.2956 7.642 75.4786 5.67391 74.0245 4.22283C72.5703 2.77175 70.5981 1.95654 68.5416 1.95654C66.4851 1.95654 64.5128 2.77175 63.0587 4.22283C61.6045 5.67391 60.7876 7.642 60.7876 9.69414C60.7876 11.7463 61.6045 13.7144 63.0587 15.1654C64.5128 16.6165 66.4851 17.4317 68.5416 17.4317ZM45.2796 48.3821C43.2231 48.3821 41.2509 49.1973 39.7967 50.6484C38.3426 52.0995 37.5256 54.0676 37.5256 56.1197C37.5256 58.1718 38.3426 60.1399 39.7967 61.591C41.2509 63.0421 43.2231 63.8573 45.2796 63.8573C47.3361 63.8573 49.3084 63.0421 50.7625 61.591C52.2167 60.1399 53.0336 58.1718 53.0336 56.1197C53.0336 54.0676 52.2167 52.0995 50.7625 50.6484C49.3084 49.1973 47.3361 48.3821 45.2796 48.3821ZM68.5416 48.3821C66.4851 48.3821 64.5128 49.1973 63.0587 50.6484C61.6045 52.0995 60.7876 54.0676 60.7876 56.1197C60.7876 58.1718 61.6045 60.1399 63.0587 61.591C64.5128 63.0421 66.4851 63.8573 68.5416 63.8573C70.5981 63.8573 72.5703 63.0421 74.0245 61.591C75.4786 60.1399 76.2956 58.1718 76.2956 56.1197C76.2956 54.0676 75.4786 52.0995 74.0245 50.6484C72.5703 49.1973 70.5981 48.3821 68.5416 48.3821ZM68.5416 25.1693C66.4851 25.1693 64.5128 25.9845 63.0587 27.4356C61.6045 28.8867 60.7876 30.8548 60.7876 32.9069C60.7876 34.9591 61.6045 36.9271 63.0587 38.3782C64.5128 39.8293 66.4851 40.6445 68.5416 40.6445C70.5981 40.6445 72.5703 39.8293 74.0245 38.3782C75.4786 36.9271 76.2956 34.9591 76.2956 32.9069C76.2956 30.8548 75.4786 28.8867 74.0245 27.4356C72.5703 25.9845 70.5981 25.1693 68.5416 25.1693ZM45.2796 25.1693C43.2231 25.1693 41.2509 25.9845 39.7967 27.4356C38.3426 28.8867 37.5256 30.8548 37.5256 32.9069C37.5256 34.9591 38.3426 36.9271 39.7967 38.3782C41.2509 39.8293 43.2231 40.6445 45.2796 40.6445C47.3361 40.6445 49.3084 39.8293 50.7625 38.3782C52.2167 36.9271 53.0336 34.9591 53.0336 32.9069C53.0336 30.8548 52.2167 28.8867 50.7625 27.4356C49.3084 25.9845 47.3361 25.1693 45.2796 25.1693ZM45.2796 1.95654C43.2231 1.95654 41.2509 2.77175 39.7967 4.22283C38.3426 5.67391 37.5256 7.642 37.5256 9.69414C37.5256 11.7463 38.3426 13.7144 39.7967 15.1654C41.2509 16.6165 43.2231 17.4317 45.2796 17.4317C47.3361 17.4317 49.3084 16.6165 50.7625 15.1654C52.2167 13.7144 53.0336 11.7463 53.0336 9.69414C53.0336 7.642 52.2167 5.67391 50.7625 4.22283C49.3084 2.77175 47.3361 1.95654 45.2796 1.95654Z" fill="url(#paint0_linear_592_9073)"/>
<defs>
<linearGradient id="paint0_linear_592_9073" x1="22.571" y1="26.9459" x2="50.3715" y2="68.9726" gradientUnits="userSpaceOnUse">
<stop offset="0.111408" stop-color="#5D169A"/>
<stop offset="0.841475" stop-color="#FDAAF8"/>
</linearGradient>
</defs>
</svg>
