<svg width="90" height="90" viewBox="0 0 90 90" fill="none" xmlns="http://www.w3.org/2000/svg">
<path d="M63.8006 56.5032H59.9038L58.5226 55.1714C63.5237 49.3707 66.2723 41.9652 66.2669 34.3063C66.2669 27.965 64.3865 21.7661 60.8634 16.4935C57.3404 11.2209 52.333 7.11145 46.4744 4.68474C40.6158 2.25803 34.1692 1.6231 27.9497 2.86022C21.7303 4.09735 16.0173 7.15097 11.5334 11.6349C7.04941 16.1189 3.99578 21.8318 2.75866 28.0513C1.52153 34.2707 2.15647 40.7174 4.58318 46.576C7.00989 52.4345 11.1194 57.442 16.392 60.965C21.6646 64.488 27.8634 66.3685 34.2047 66.3685C42.1463 66.3685 49.4466 63.4582 55.0698 58.6242L56.4016 60.0053V63.9021L81.0648 88.516L88.4144 81.1664L63.8006 56.5032ZM34.2047 56.5032C21.9225 56.5032 12.0079 46.5886 12.0079 34.3063C12.0079 22.024 21.9225 12.1094 34.2047 12.1094C46.487 12.1094 56.4016 22.024 56.4016 34.3063C56.4016 46.5886 46.487 56.5032 34.2047 56.5032Z" fill="url(#paint0_linear_592_9077)"/>
<defs>
<linearGradient id="paint0_linear_592_9077" x1="13.6962" y1="27.5736" x2="37.6518" y2="77.2632" gradientUnits="userSpaceOnUse">
<stop offset="0.111408" stop-color="#5D169A"/>
<stop offset="0.841475" stop-color="#FDAAF8"/>
</linearGradient>
</defs>
</svg>
