<svg width="90" height="90" viewBox="0 0 90 90" fill="none" xmlns="http://www.w3.org/2000/svg">
<path d="M58.8672 2.04199C42.0957 2.04199 28.5312 15.6065 28.5312 32.3779C28.5312 55.1299 58.8672 88.7161 58.8672 88.7161C58.8672 88.7161 89.2031 55.1299 89.2031 32.3779C89.2031 15.6065 75.6386 2.04199 58.8672 2.04199ZM58.8672 43.2122C55.9938 43.2122 53.238 42.0707 51.2062 40.0389C49.1744 38.0071 48.0329 35.2514 48.0329 32.3779C48.0329 29.5045 49.1744 26.7488 51.2062 24.7169C53.238 22.6851 55.9938 21.5437 58.8672 21.5437C61.7406 21.5437 64.4964 22.6851 66.5282 24.7169C68.56 26.7488 69.7015 29.5045 69.7015 32.3779C69.7015 35.2514 68.56 38.0071 66.5282 40.0389C64.4964 42.0707 61.7406 43.2122 58.8672 43.2122Z" fill="url(#paint0_linear_592_9076)"/>
<defs>
<linearGradient id="paint0_linear_592_9076" x1="36.6565" y1="27.4895" x2="65.397" y2="69.2196" gradientUnits="userSpaceOnUse">
<stop offset="0.111408" stop-color="#5D169A"/>
<stop offset="0.841475" stop-color="#FDAAF8"/>
</linearGradient>
</defs>
</svg>
